<svg id="Layer_1" data-name="Layer 1" xmlns="http://www.w3.org/2000/svg" width="440.2" height="67" viewBox="0 0 440.2 67">
  <g>
    <path d="M262.75,0H0V63.1H440.2V0Zm-231,41.64a9.32,9.32,0,0,1-7.74-4h0v10.5H21.43V21.3H24v3.49h0a9.32,9.32,0,0,1,7.74-4,10.43,10.43,0,1,1,.65,20.85h-.64ZM54.1,39.35a7.54,7.54,0,0,0,7.12-4.68h2.69a10.34,10.34,0,0,1-20.12-3.42A10.52,10.52,0,0,1,54.1,20.79,10.33,10.33,0,0,1,63,25.88a10.58,10.58,0,0,1,1.53,6.28H46.4A7.89,7.89,0,0,0,54.1,39.35Zm30.28,1.82H81.84V30.24A7.45,7.45,0,0,0,80,24.79a6.32,6.32,0,0,0-8.65,0,7.36,7.36,0,0,0-1.85,5.45V41.17H66.91V21.3h2.54v2.55h.08a7.09,7.09,0,0,1,6.1-3.06,8.23,8.23,0,0,1,6.28,2.44c1.49,1.45,2.47,3.74,2.47,7Zm20.69,0h-2.55V30.24a7.41,7.41,0,0,0-1.88-5.45,6.32,6.32,0,0,0-8.65,0,7.27,7.27,0,0,0-1.85,5.45V41.17H87.6V21.3h2.54v2.55h.07a7.14,7.14,0,0,1,6.1-3.06,8.25,8.25,0,0,1,6.29,2.44c1.49,1.45,2.47,3.74,2.47,7Zm5.14,7,3.45-7.62L105.93,21.3h2.68l6.32,15.84,6.76-15.84h2.68L112.86,48.14Zm35.44-7h-4.43v-2.5a10,10,0,0,1-7.05,3.15c-5.19,0-9.81-4.14-9.81-10.86,0-6.17,4.51-10.64,10.1-10.64a8.58,8.58,0,0,1,6.69,3.24h.07V21h4.43Zm13,.65a8,8,0,0,1-6.21-2.58v8.65h-4.83V21h4.44v2.35h.06a8,8,0,0,1,6.54-3.05c6.61,0,10.09,5.71,10.09,10.68C168.74,37,164.35,41.82,158.65,41.82Zm22.52,0A8,8,0,0,1,175,39.24v8.65h-4.83V21h4.42v2.35h.08a7.94,7.94,0,0,1,6.54-3.05C187.82,20.3,191.3,26,191.3,31,191.26,37,186.87,41.82,181.17,41.82Zm31.63-8.57H197.15a5.78,5.78,0,0,0,5.56,4.14,5,5,0,0,0,4.64-2.57h5.09a10.47,10.47,0,0,1-9.73,7A10.58,10.58,0,0,1,192.07,31.3v-.15a10.75,10.75,0,0,1,10.57-10.93h0a10.58,10.58,0,0,1,10.42,10.6A11.69,11.69,0,0,1,212.8,33.25ZM235,41.17h-4.43v-2.5a10,10,0,0,1-7,3.15c-5.19,0-9.8-4.14-9.8-10.86,0-6.17,4.5-10.64,10.09-10.64a8.58,8.58,0,0,1,6.69,3.24h.07V21H235Zm7,0h-4.82V14.3H242ZM434.81,57.71h-172V5.39h172Z" fill="#fff"/>
    <path d="M202.71,24.65A5.84,5.84,0,0,0,197,29.37h11.15A5.39,5.39,0,0,0,202.71,24.65Z" fill="#fff"/>
    <path d="M180.62,24.76a6.06,6.06,0,0,0-6,6.13v.18a5.9,5.9,0,1,0,11.77,0A6.09,6.09,0,0,0,180.62,24.76Z" fill="#fff"/>
    <path d="M54.13,23.08a7.84,7.84,0,0,0-7.73,6.79H61.91A7.9,7.9,0,0,0,54.13,23.08Z" fill="#fff"/>
    <path d="M158.11,24.76a6,6,0,0,0-6,6.11v.2a5.9,5.9,0,1,0,11.76,1,5.24,5.24,0,0,0,0-1A6.1,6.1,0,0,0,158.11,24.76Z" fill="#fff"/>
    <path d="M135.19,24.76c-4,0-6,3.41-6,6.43a6,6,0,0,0,5.8,6.2h.2c3.34,0,5.88-2.61,5.88-6.35a5.89,5.89,0,0,0-5.47-6.27Z" fill="#fff"/>
    <path d="M31.78,23.08a8.14,8.14,0,0,0,0,16.27,7.88,7.88,0,0,0,8.13-7.62v-.44a7.93,7.93,0,0,0-7.64-8.21Z" fill="#fff"/>
    <path d="M224.53,24.76c-4,0-6,3.41-6,6.43a6,6,0,0,0,5.8,6.2h.2c3.34,0,5.88-2.61,5.88-6.35a5.89,5.89,0,0,0-5.47-6.27Z" fill="#fff"/>
    <path d="M286.74,41.5a11.13,11.13,0,0,0,10.94-8.61h-6.35a4.8,4.8,0,0,1-4.51,2.78c-3,0-5-2.25-5-5.3a5.76,5.76,0,0,1,1.35-3.83,4.5,4.5,0,0,1,3.61-1.47A4.69,4.69,0,0,1,291.33,28h6.32a11.16,11.16,0,1,0-10.91,13.5Z" fill="#fff"/>
    <path d="M309.86,41.54c2.45,0,5-.94,6.17-3v2.25h6.24V20H316v2.22a7,7,0,0,0-6.17-2.94c-5.56,0-10.49,4.29-10.49,11.13C299.37,36.35,303.25,41.54,309.86,41.54Zm-4.25-11.09a5.17,5.17,0,0,1,4.94-5.38h.22A4.93,4.93,0,0,1,315.5,28a5.3,5.3,0,0,1,.53,2.74,5.74,5.74,0,0,1-.87,2.67,4.81,4.81,0,0,1-4.36,2.33,5.2,5.2,0,0,1-5.19-5.21h0Z" fill="#fff"/>
    <path d="M332.3,29.47c0-2.14.49-4.36,3.58-4.36,2.78,0,3.27,2,3.27,4.32V40.82h6.24v-13c0-2.82-.72-8.54-7.75-8.54a6.18,6.18,0,0,0-5.75,2.94V20h-5.83V40.82h6.24Z" fill="#fff"/>
    <path d="M358.58,41.54c2.45,0,5-.94,6.17-3v2.25H371V20h-6.24v2.22a7,7,0,0,0-6.17-2.94c-5.56,0-10.49,4.29-10.49,11.13C348.09,36.35,352,41.54,358.58,41.54Zm-4.25-11.09a5.17,5.17,0,0,1,4.94-5.38h.21a5,5,0,0,1,4.74,2.9,5.3,5.3,0,0,1,.53,2.74,5.74,5.74,0,0,1-.87,2.67,4.83,4.83,0,0,1-4.36,2.33,5.2,5.2,0,0,1-5.19-5.21h0Z" fill="#fff"/>
    <path d="M384.26,41.5c4.21,0,5.71-2.07,6.31-2.93v2.25h5.94V13h-6.24v8.73a8,8,0,0,0-6.12-2.49c-5.31,0-10.34,4-10.34,11.09C373.81,36.61,377.94,41.5,384.26,41.5Zm-4.21-11.2a5.12,5.12,0,0,1,5-5.23h.29a5.15,5.15,0,0,1,3.72,1.47,5,5,0,0,1,1.54,3.68,5,5,0,0,1-1.46,3.87,5.47,5.47,0,0,1-3.88,1.58,5.1,5.1,0,0,1-5.22-5,2.28,2.28,0,0,1,0-.37Z" fill="#fff"/>
    <path d="M409.78,41.54c2.45,0,5-.94,6.17-3v2.25h6.24V20H416v2.22a7,7,0,0,0-6.17-2.94c-5.56,0-10.49,4.29-10.49,11.13C399.29,36.35,403.17,41.54,409.78,41.54Zm-4.24-11.09a5.14,5.14,0,0,1,4.91-5.37h.24a5,5,0,0,1,4.73,2.9,5.3,5.3,0,0,1,.53,2.74,5.74,5.74,0,0,1-.87,2.67,4.83,4.83,0,0,1-4.36,2.33,5.19,5.19,0,0,1-5.18-5.2v-.06Z" fill="#fff"/>
  </g>
</svg>
